# xmcd CD database file
#
# Track frame offsets:
#	150
#	14917
#	29176
#	44559
#	63868
#	75450
#	91942
#	103968
#	128442
#	148673
#	173913
#	199237
#
# Disc length: 2838 seconds
#
# Revision: 1
# Processed by: cddbd v1.4PL0 Copyright (c) Steve Scherf et al.
# Submitted via: Feurio! 1.63 - http://www.feurio.com
#
DISCID=ab0b140c
DTITLE=On the Roxx - Live '99
DYEAR=1999
DGENRE=
TTITLE0=Keep your hands to yourself
TTITLE1=Big girl blues
TTITLE2=Never been rocked enough
TTITLE3=Come together
TTITLE4=Day tripper
TTITLE5=It's a dirty job
TTITLE6=Let's work together
TTITLE7=Fool for your stockings
TTITLE8=King of the blues
TTITLE9=Sweet home Alabama
TTITLE10=Superstition
TTITLE11=Walking by myself
EXTD=
EXTT0=
EXTT1=
EXTT2=
EXTT3=
EXTT4=
EXTT5=
EXTT6=
EXTT7=
EXTT8=
EXTT9=
EXTT10=
EXTT11=
PLAYORDER=
